<svg width="81" height="24" viewBox="0 0 81 24" fill="none" xmlns="http://www.w3.org/2000/svg">
<path d="M66.8565 0H69.6717C69.6952 0 69.7069 0 69.7069 0C69.7069 0 69.7069 0.0117302 69.7069 0.0351903V2.85044C69.7069 2.8739 69.7069 2.88563 69.7069 2.88563C69.7069 2.88563 69.6952 2.88563 69.6717 2.88563H66.8565C66.833 2.88563 66.8213 2.88563 66.8213 2.88563C66.8213 2.88563 66.8213 2.8739 66.8213 2.85044V0.0351903C66.8213 0.0117302 66.8213 0 66.8213 0C66.8213 0 66.833 0 66.8565 0ZM70.3756 0H73.1908C73.2143 0 73.226 0 73.226 0C73.226 0 73.226 0.0117302 73.226 0.0351903V2.85044C73.226 2.8739 73.226 2.88563 73.226 2.88563C73.226 2.88563 73.2143 2.88563 73.1908 2.88563H70.3756C70.3521 2.88563 70.3404 2.88563 70.3404 2.88563C70.3404 2.88563 70.3404 2.8739 70.3404 2.85044V0.0351903C70.3404 0.0117302 70.3404 0 70.3404 0C70.3404 0 70.3521 0 70.3756 0ZM73.8946 0H76.7099C76.7333 0 76.7451 0 76.7451 0C76.7451 0 76.7451 0.0117302 76.7451 0.0351903V2.85044C76.7451 2.8739 76.7451 2.88563 76.7451 2.88563C76.7451 2.88563 76.7333 2.88563 76.7099 2.88563H73.8946C73.8712 2.88563 73.8594 2.88563 73.8594 2.88563C73.8594 2.88563 73.8594 2.8739 73.8594 2.85044V0.0351903C73.8594 0.0117302 73.8594 0 73.8594 0C73.8594 0 73.8712 0 73.8946 0ZM63.3374 3.51906H66.1527C66.1761 3.51906 66.1879 3.51906 66.1879 3.51906C66.1879 3.51906 66.1879 3.53079 66.1879 3.55425V6.3695C66.1879 6.39296 66.1879 6.40469 66.1879 6.40469C66.1879 6.40469 66.1761 6.40469 66.1527 6.40469H63.3374C63.314 6.40469 63.3022 6.40469 63.3022 6.40469C63.3022 6.40469 63.3022 6.39296 63.3022 6.3695V3.55425C63.3022 3.53079 63.3022 3.51906 63.3022 3.51906C63.3022 3.51906 63.314 3.51906 63.3374 3.51906ZM77.4137 3.51906H80.2289C80.2524 3.51906 80.2641 3.51906 80.2641 3.51906C80.2641 3.51906 80.2641 3.53079 80.2641 3.55425V6.3695C80.2641 6.39296 80.2641 6.40469 80.2641 6.40469C80.2641 6.40469 80.2524 6.40469 80.2289 6.40469H77.4137C77.3902 6.40469 77.3785 6.40469 77.3785 6.40469C77.3785 6.40469 77.3785 6.39296 77.3785 6.3695V3.55425C77.3785 3.53079 77.3785 3.51906 77.3785 3.51906C77.3785 3.51906 77.3902 3.51906 77.4137 3.51906ZM63.3374 7.03812H66.1527C66.1761 7.03812 66.1879 7.03812 66.1879 7.03812C66.1879 7.03812 66.1879 7.04985 66.1879 7.07332V9.88856C66.1879 9.91202 66.1879 9.92375 66.1879 9.92375C66.1879 9.92375 66.1761 9.92375 66.1527 9.92375H63.3374C63.314 9.92375 63.3022 9.92375 63.3022 9.92375C63.3022 9.92375 63.3022 9.91202 63.3022 9.88856V7.07332C63.3022 7.04985 63.3022 7.03812 63.3022 7.03812C63.3022 7.03812 63.314 7.03812 63.3374 7.03812ZM77.4137 7.03812H80.2289C80.2524 7.03812 80.2641 7.03812 80.2641 7.03812C80.2641 7.03812 80.2641 7.04985 80.2641 7.07332V9.88856C80.2641 9.91202 80.2641 9.92375 80.2641 9.92375C80.2641 9.92375 80.2524 9.92375 80.2289 9.92375H77.4137C77.3902 9.92375 77.3785 9.92375 77.3785 9.92375C77.3785 9.92375 77.3785 9.91202 77.3785 9.88856V7.07332C77.3785 7.04985 77.3785 7.03812 77.3785 7.03812C77.3785 7.03812 77.3902 7.03812 77.4137 7.03812ZM63.3374 10.5572H66.1527C66.1761 10.5572 66.1879 10.5572 66.1879 10.5572C66.1879 10.5572 66.1879 10.5689 66.1879 10.5924V13.4076C66.1879 13.4311 66.1879 13.4428 66.1879 13.4428C66.1879 13.4428 66.1761 13.4428 66.1527 13.4428H63.3374C63.314 13.4428 63.3022 13.4428 63.3022 13.4428C63.3022 13.4428 63.3022 13.4311 63.3022 13.4076V10.5924C63.3022 10.5689 63.3022 10.5572 63.3022 10.5572C63.3022 10.5572 63.314 10.5572 63.3374 10.5572ZM77.4137 10.5572H80.2289C80.2524 10.5572 80.2641 10.5572 80.2641 10.5572C80.2641 10.5572 80.2641 10.5689 80.2641 10.5924V13.4076C80.2641 13.4311 80.2641 13.4428 80.2641 13.4428C80.2641 13.4428 80.2524 13.4428 80.2289 13.4428H77.4137C77.3902 13.4428 77.3785 13.4428 77.3785 13.4428C77.3785 13.4428 77.3785 13.4311 77.3785 13.4076V10.5924C77.3785 10.5689 77.3785 10.5572 77.3785 10.5572C77.3785 10.5572 77.3902 10.5572 77.4137 10.5572ZM63.3374 14.0762H66.1527C66.1761 14.0762 66.1879 14.0762 66.1879 14.0762C66.1879 14.0762 66.1879 14.088 66.1879 14.1114V16.9267C66.1879 16.9501 66.1879 16.9619 66.1879 16.9619C66.1879 16.9619 66.1761 16.9619 66.1527 16.9619H63.3374C63.314 16.9619 63.3022 16.9619 63.3022 16.9619C63.3022 16.9619 63.3022 16.9501 63.3022 16.9267V14.1114C63.3022 14.088 63.3022 14.0762 63.3022 14.0762C63.3022 14.0762 63.314 14.0762 63.3374 14.0762ZM77.4137 14.0762H80.2289C80.2524 14.0762 80.2641 14.0762 80.2641 14.0762C80.2641 14.0762 80.2641 14.088 80.2641 14.1114V16.9267C80.2641 16.9501 80.2641 16.9619 80.2641 16.9619C80.2641 16.9619 80.2524 16.9619 80.2289 16.9619H77.4137C77.3902 16.9619 77.3785 16.9619 77.3785 16.9619C77.3785 16.9619 77.3785 16.9501 77.3785 16.9267V14.1114C77.3785 14.088 77.3785 14.0762 77.3785 14.0762C77.3785 14.0762 77.3902 14.0762 77.4137 14.0762ZM63.3374 17.5953H66.1527C66.1761 17.5953 66.1879 17.5953 66.1879 17.5953C66.1879 17.5953 66.1879 17.607 66.1879 17.6305V20.4457C66.1879 20.4692 66.1879 20.4809 66.1879 20.4809C66.1879 20.4809 66.1761 20.4809 66.1527 20.4809H63.3374C63.314 20.4809 63.3022 20.4809 63.3022 20.4809C63.3022 20.4809 63.3022 20.4692 63.3022 20.4457V17.6305C63.3022 17.607 63.3022 17.5953 63.3022 17.5953C63.3022 17.5953 63.314 17.5953 63.3374 17.5953ZM77.4137 17.5953H80.2289C80.2524 17.5953 80.2641 17.5953 80.2641 17.5953C80.2641 17.5953 80.2641 17.607 80.2641 17.6305V20.4457C80.2641 20.4692 80.2641 20.4809 80.2641 20.4809C80.2641 20.4809 80.2524 20.4809 80.2289 20.4809H77.4137C77.3902 20.4809 77.3785 20.4809 77.3785 20.4809C77.3785 20.4809 77.3785 20.4692 77.3785 20.4457V17.6305C77.3785 17.607 77.3785 17.5953 77.3785 17.5953C77.3785 17.5953 77.3902 17.5953 77.4137 17.5953ZM66.8565 21.1144H69.6717C69.6952 21.1144 69.7069 21.1144 69.7069 21.1144C69.7069 21.1144 69.7069 21.1261 69.7069 21.1496V23.9648C69.7069 23.9883 69.7069 24 69.7069 24C69.7069 24 69.6952 24 69.6717 24H66.8565C66.833 24 66.8213 24 66.8213 24C66.8213 24 66.8213 23.9883 66.8213 23.9648V21.1496C66.8213 21.1261 66.8213 21.1144 66.8213 21.1144C66.8213 21.1144 66.833 21.1144 66.8565 21.1144ZM70.3756 21.1144H73.1908C73.2143 21.1144 73.226 21.1144 73.226 21.1144C73.226 21.1144 73.226 21.1261 73.226 21.1496V23.9648C73.226 23.9883 73.226 24 73.226 24C73.226 24 73.2143 24 73.1908 24H70.3756C70.3521 24 70.3404 24 70.3404 24C70.3404 24 70.3404 23.9883 70.3404 23.9648V21.1496C70.3404 21.1261 70.3404 21.1144 70.3404 21.1144C70.3404 21.1144 70.3521 21.1144 70.3756 21.1144ZM73.8946 21.1144H76.7099C76.7333 21.1144 76.7451 21.1144 76.7451 21.1144C76.7451 21.1144 76.7451 21.1261 76.7451 21.1496V23.9648C76.7451 23.9883 76.7451 24 76.7451 24C76.7451 24 76.7333 24 76.7099 24H73.8946C73.8712 24 73.8594 24 73.8594 24C73.8594 24 73.8594 23.9883 73.8594 23.9648V21.1496C73.8594 21.1261 73.8594 21.1144 73.8594 21.1144C73.8594 21.1144 73.8712 21.1144 73.8946 21.1144Z" fill="#383838"/>
<path d="M42.2364 0H45.0516C45.0751 0 45.0868 0 45.0868 0C45.0868 0 45.0868 0.0117302 45.0868 0.0351903V2.85044C45.0868 2.8739 45.0868 2.88563 45.0868 2.88563C45.0868 2.88563 45.0751 2.88563 45.0516 2.88563H42.2364C42.2129 2.88563 42.2012 2.88563 42.2012 2.88563C42.2012 2.88563 42.2012 2.8739 42.2012 2.85044V0.0351903C42.2012 0.0117302 42.2012 0 42.2012 0C42.2012 0 42.2129 0 42.2364 0ZM45.7554 0H48.5707C48.5941 0 48.6059 0 48.6059 0C48.6059 0 48.6059 0.0117302 48.6059 0.0351903V2.85044C48.6059 2.8739 48.6059 2.88563 48.6059 2.88563C48.6059 2.88563 48.5941 2.88563 48.5707 2.88563H45.7554C45.732 2.88563 45.7202 2.88563 45.7202 2.88563C45.7202 2.88563 45.7202 2.8739 45.7202 2.85044V0.0351903C45.7202 0.0117302 45.7202 0 45.7202 0C45.7202 0 45.732 0 45.7554 0ZM49.2745 0H52.0897C52.1132 0 52.1249 0 52.1249 0C52.1249 0 52.1249 0.0117302 52.1249 0.0351903V2.85044C52.1249 2.8739 52.1249 2.88563 52.1249 2.88563C52.1249 2.88563 52.1132 2.88563 52.0897 2.88563H49.2745C49.251 2.88563 49.2393 2.88563 49.2393 2.88563C49.2393 2.88563 49.2393 2.8739 49.2393 2.85044V0.0351903C49.2393 0.0117302 49.2393 0 49.2393 0C49.2393 0 49.251 0 49.2745 0ZM52.7935 0H55.6088C55.6323 0 55.644 0 55.644 0C55.644 0 55.644 0.0117302 55.644 0.0351903V2.85044C55.644 2.8739 55.644 2.88563 55.644 2.88563C55.644 2.88563 55.6323 2.88563 55.6088 2.88563H52.7935C52.7701 2.88563 52.7584 2.88563 52.7584 2.88563C52.7584 2.88563 52.7584 2.8739 52.7584 2.85044V0.0351903C52.7584 0.0117302 52.7584 0 52.7584 0C52.7584 0 52.7701 0 52.7935 0ZM45.7554 3.51906H48.5707C48.5941 3.51906 48.6059 3.51906 48.6059 3.51906C48.6059 3.51906 48.6059 3.53079 48.6059 3.55425V6.3695C48.6059 6.39296 48.6059 6.40469 48.6059 6.40469C48.6059 6.40469 48.5941 6.40469 48.5707 6.40469H45.7554C45.732 6.40469 45.7202 6.40469 45.7202 6.40469C45.7202 6.40469 45.7202 6.39296 45.7202 6.3695V3.55425C45.7202 3.53079 45.7202 3.51906 45.7202 3.51906C45.7202 3.51906 45.732 3.51906 45.7554 3.51906ZM56.3126 3.51906H59.1279C59.1513 3.51906 59.163 3.51906 59.163 3.51906C59.163 3.51906 59.163 3.53079 59.163 3.55425V6.3695C59.163 6.39296 59.163 6.40469 59.163 6.40469C59.163 6.40469 59.1513 6.40469 59.1279 6.40469H56.3126C56.2891 6.40469 56.2774 6.40469 56.2774 6.40469C56.2774 6.40469 56.2774 6.39296 56.2774 6.3695V3.55425C56.2774 3.53079 56.2774 3.51906 56.2774 3.51906C56.2774 3.51906 56.2891 3.51906 56.3126 3.51906ZM45.7554 7.03812H48.5707C48.5941 7.03812 48.6059 7.03812 48.6059 7.03812C48.6059 7.03812 48.6059 7.04985 48.6059 7.07332V9.88856C48.6059 9.91202 48.6059 9.92375 48.6059 9.92375C48.6059 9.92375 48.5941 9.92375 48.5707 9.92375H45.7554C45.732 9.92375 45.7202 9.92375 45.7202 9.92375C45.7202 9.92375 45.7202 9.91202 45.7202 9.88856V7.07332C45.7202 7.04985 45.7202 7.03812 45.7202 7.03812C45.7202 7.03812 45.732 7.03812 45.7554 7.03812ZM56.3126 7.03812H59.1279C59.1513 7.03812 59.163 7.03812 59.163 7.03812C59.163 7.03812 59.163 7.04985 59.163 7.07332V9.88856C59.163 9.91202 59.163 9.92375 59.163 9.92375C59.163 9.92375 59.1513 9.92375 59.1279 9.92375H56.3126C56.2891 9.92375 56.2774 9.92375 56.2774 9.92375C56.2774 9.92375 56.2774 9.91202 56.2774 9.88856V7.07332C56.2774 7.04985 56.2774 7.03812 56.2774 7.03812C56.2774 7.03812 56.2891 7.03812 56.3126 7.03812ZM45.7554 10.5572H48.5707C48.5941 10.5572 48.6059 10.5572 48.6059 10.5572C48.6059 10.5572 48.6059 10.5689 48.6059 10.5924V13.4076C48.6059 13.4311 48.6059 13.4428 48.6059 13.4428C48.6059 13.4428 48.5941 13.4428 48.5707 13.4428H45.7554C45.732 13.4428 45.7202 13.4428 45.7202 13.4428C45.7202 13.4428 45.7202 13.4311 45.7202 13.4076V10.5924C45.7202 10.5689 45.7202 10.5572 45.7202 10.5572C45.7202 10.5572 45.732 10.5572 45.7554 10.5572ZM56.3126 10.5572H59.1279C59.1513 10.5572 59.163 10.5572 59.163 10.5572C59.163 10.5572 59.163 10.5689 59.163 10.5924V13.4076C59.163 13.4311 59.163 13.4428 59.163 13.4428C59.163 13.4428 59.1513 13.4428 59.1279 13.4428H56.3126C56.2891 13.4428 56.2774 13.4428 56.2774 13.4428C56.2774 13.4428 56.2774 13.4311 56.2774 13.4076V10.5924C56.2774 10.5689 56.2774 10.5572 56.2774 10.5572C56.2774 10.5572 56.2891 10.5572 56.3126 10.5572ZM45.7554 14.0762H48.5707C48.5941 14.0762 48.6059 14.0762 48.6059 14.0762C48.6059 14.0762 48.6059 14.088 48.6059 14.1114V16.9267C48.6059 16.9501 48.6059 16.9619 48.6059 16.9619C48.6059 16.9619 48.5941 16.9619 48.5707 16.9619H45.7554C45.732 16.9619 45.7202 16.9619 45.7202 16.9619C45.7202 16.9619 45.7202 16.9501 45.7202 16.9267V14.1114C45.7202 14.088 45.7202 14.0762 45.7202 14.0762C45.7202 14.0762 45.732 14.0762 45.7554 14.0762ZM56.3126 14.0762H59.1279C59.1513 14.0762 59.163 14.0762 59.163 14.0762C59.163 14.0762 59.163 14.088 59.163 14.1114V16.9267C59.163 16.9501 59.163 16.9619 59.163 16.9619C59.163 16.9619 59.1513 16.9619 59.1279 16.9619H56.3126C56.2891 16.9619 56.2774 16.9619 56.2774 16.9619C56.2774 16.9619 56.2774 16.9501 56.2774 16.9267V14.1114C56.2774 14.088 56.2774 14.0762 56.2774 14.0762C56.2774 14.0762 56.2891 14.0762 56.3126 14.0762ZM45.7554 17.5953H48.5707C48.5941 17.5953 48.6059 17.5953 48.6059 17.5953C48.6059 17.5953 48.6059 17.607 48.6059 17.6305V20.4457C48.6059 20.4692 48.6059 20.4809 48.6059 20.4809C48.6059 20.4809 48.5941 20.4809 48.5707 20.4809H45.7554C45.732 20.4809 45.7202 20.4809 45.7202 20.4809C45.7202 20.4809 45.7202 20.4692 45.7202 20.4457V17.6305C45.7202 17.607 45.7202 17.5953 45.7202 17.5953C45.7202 17.5953 45.732 17.5953 45.7554 17.5953ZM56.3126 17.5953H59.1279C59.1513 17.5953 59.163 17.5953 59.163 17.5953C59.163 17.5953 59.163 17.607 59.163 17.6305V20.4457C59.163 20.4692 59.163 20.4809 59.163 20.4809C59.163 20.4809 59.1513 20.4809 59.1279 20.4809H56.3126C56.2891 20.4809 56.2774 20.4809 56.2774 20.4809C56.2774 20.4809 56.2774 20.4692 56.2774 20.4457V17.6305C56.2774 17.607 56.2774 17.5953 56.2774 17.5953C56.2774 17.5953 56.2891 17.5953 56.3126 17.5953ZM42.2364 21.1144H45.0516C45.0751 21.1144 45.0868 21.1144 45.0868 21.1144C45.0868 21.1144 45.0868 21.1261 45.0868 21.1496V23.9648C45.0868 23.9883 45.0868 24 45.0868 24C45.0868 24 45.0751 24 45.0516 24H42.2364C42.2129 24 42.2012 24 42.2012 24C42.2012 24 42.2012 23.9883 42.2012 23.9648V21.1496C42.2012 21.1261 42.2012 21.1144 42.2012 21.1144C42.2012 21.1144 42.2129 21.1144 42.2364 21.1144ZM45.7554 21.1144H48.5707C48.5941 21.1144 48.6059 21.1144 48.6059 21.1144C48.6059 21.1144 48.6059 21.1261 48.6059 21.1496V23.9648C48.6059 23.9883 48.6059 24 48.6059 24C48.6059 24 48.5941 24 48.5707 24H45.7554C45.732 24 45.7202 24 45.7202 24C45.7202 24 45.7202 23.9883 45.7202 23.9648V21.1496C45.7202 21.1261 45.7202 21.1144 45.7202 21.1144C45.7202 21.1144 45.732 21.1144 45.7554 21.1144ZM49.2745 21.1144H52.0897C52.1132 21.1144 52.1249 21.1144 52.1249 21.1144C52.1249 21.1144 52.1249 21.1261 52.1249 21.1496V23.9648C52.1249 23.9883 52.1249 24 52.1249 24C52.1249 24 52.1132 24 52.0897 24H49.2745C49.251 24 49.2393 24 49.2393 24C49.2393 24 49.2393 23.9883 49.2393 23.9648V21.1496C49.2393 21.1261 49.2393 21.1144 49.2393 21.1144C49.2393 21.1144 49.251 21.1144 49.2745 21.1144ZM52.7935 21.1144H55.6088C55.6323 21.1144 55.644 21.1144 55.644 21.1144C55.644 21.1144 55.644 21.1261 55.644 21.1496V23.9648C55.644 23.9883 55.644 24 55.644 24C55.644 24 55.6323 24 55.6088 24H52.7935C52.7701 24 52.7584 24 52.7584 24C52.7584 24 52.7584 23.9883 52.7584 23.9648V21.1496C52.7584 21.1261 52.7584 21.1144 52.7584 21.1144C52.7584 21.1144 52.7701 21.1144 52.7935 21.1144Z" fill="#383838"/>
<path d="M21.1363 0H23.9515C23.975 0 23.9867 0 23.9867 0C23.9867 0 23.9867 0.0117302 23.9867 0.0351903V2.85044C23.9867 2.8739 23.9867 2.88563 23.9867 2.88563C23.9867 2.88563 23.975 2.88563 23.9515 2.88563H21.1363C21.1128 2.88563 21.1011 2.88563 21.1011 2.88563C21.1011 2.88563 21.1011 2.8739 21.1011 2.85044V0.0351903C21.1011 0.0117302 21.1011 0 21.1011 0C21.1011 0 21.1128 0 21.1363 0ZM35.2125 0H38.0278C38.0512 0 38.063 0 38.063 0C38.063 0 38.063 0.0117302 38.063 0.0351903V2.85044C38.063 2.8739 38.063 2.88563 38.063 2.88563C38.063 2.88563 38.0512 2.88563 38.0278 2.88563H35.2125C35.189 2.88563 35.1773 2.88563 35.1773 2.88563C35.1773 2.88563 35.1773 2.8739 35.1773 2.85044V0.0351903C35.1773 0.0117302 35.1773 0 35.1773 0C35.1773 0 35.189 0 35.2125 0ZM21.1363 3.51906H23.9515C23.975 3.51906 23.9867 3.51906 23.9867 3.51906C23.9867 3.51906 23.9867 3.53079 23.9867 3.55425V6.3695C23.9867 6.39296 23.9867 6.40469 23.9867 6.40469C23.9867 6.40469 23.975 6.40469 23.9515 6.40469H21.1363C21.1128 6.40469 21.1011 6.40469 21.1011 6.40469C21.1011 6.40469 21.1011 6.39296 21.1011 6.3695V3.55425C21.1011 3.53079 21.1011 3.51906 21.1011 3.51906C21.1011 3.51906 21.1128 3.51906 21.1363 3.51906ZM35.2125 3.51906H38.0278C38.0512 3.51906 38.063 3.51906 38.063 3.51906C38.063 3.51906 38.063 3.53079 38.063 3.55425V6.3695C38.063 6.39296 38.063 6.40469 38.063 6.40469C38.063 6.40469 38.0512 6.40469 38.0278 6.40469H35.2125C35.189 6.40469 35.1773 6.40469 35.1773 6.40469C35.1773 6.40469 35.1773 6.39296 35.1773 6.3695V3.55425C35.1773 3.53079 35.1773 3.51906 35.1773 3.51906C35.1773 3.51906 35.189 3.51906 35.2125 3.51906ZM21.1363 7.03812H23.9515C23.975 7.03812 23.9867 7.03812 23.9867 7.03812C23.9867 7.03812 23.9867 7.04985 23.9867 7.07332V9.88856C23.9867 9.91202 23.9867 9.92375 23.9867 9.92375C23.9867 9.92375 23.975 9.92375 23.9515 9.92375H21.1363C21.1128 9.92375 21.1011 9.92375 21.1011 9.92375C21.1011 9.92375 21.1011 9.91202 21.1011 9.88856V7.07332C21.1011 7.04985 21.1011 7.03812 21.1011 7.03812C21.1011 7.03812 21.1128 7.03812 21.1363 7.03812ZM35.2125 7.03812H38.0278C38.0512 7.03812 38.063 7.03812 38.063 7.03812C38.063 7.03812 38.063 7.04985 38.063 7.07332V9.88856C38.063 9.91202 38.063 9.92375 38.063 9.92375C38.063 9.92375 38.0512 9.92375 38.0278 9.92375H35.2125C35.189 9.92375 35.1773 9.92375 35.1773 9.92375C35.1773 9.92375 35.1773 9.91202 35.1773 9.88856V7.07332C35.1773 7.04985 35.1773 7.03812 35.1773 7.03812C35.1773 7.03812 35.189 7.03812 35.2125 7.03812ZM21.1363 10.5572H23.9515C23.975 10.5572 23.9867 10.5572 23.9867 10.5572C23.9867 10.5572 23.9867 10.5689 23.9867 10.5924V13.4076C23.9867 13.4311 23.9867 13.4428 23.9867 13.4428C23.9867 13.4428 23.975 13.4428 23.9515 13.4428H21.1363C21.1128 13.4428 21.1011 13.4428 21.1011 13.4428C21.1011 13.4428 21.1011 13.4311 21.1011 13.4076V10.5924C21.1011 10.5689 21.1011 10.5572 21.1011 10.5572C21.1011 10.5572 21.1128 10.5572 21.1363 10.5572ZM35.2125 10.5572H38.0278C38.0512 10.5572 38.063 10.5572 38.063 10.5572C38.063 10.5572 38.063 10.5689 38.063 10.5924V13.4076C38.063 13.4311 38.063 13.4428 38.063 13.4428C38.063 13.4428 38.0512 13.4428 38.0278 13.4428H35.2125C35.189 13.4428 35.1773 13.4428 35.1773 13.4428C35.1773 13.4428 35.1773 13.4311 35.1773 13.4076V10.5924C35.1773 10.5689 35.1773 10.5572 35.1773 10.5572C35.1773 10.5572 35.189 10.5572 35.2125 10.5572ZM21.1363 14.0762H23.9515C23.975 14.0762 23.9867 14.0762 23.9867 14.0762C23.9867 14.0762 23.9867 14.088 23.9867 14.1114V16.9267C23.9867 16.9501 23.9867 16.9619 23.9867 16.9619C23.9867 16.9619 23.975 16.9619 23.9515 16.9619H21.1363C21.1128 16.9619 21.1011 16.9619 21.1011 16.9619C21.1011 16.9619 21.1011 16.9501 21.1011 16.9267V14.1114C21.1011 14.088 21.1011 14.0762 21.1011 14.0762C21.1011 14.0762 21.1128 14.0762 21.1363 14.0762ZM35.2125 14.0762H38.0278C38.0512 14.0762 38.063 14.0762 38.063 14.0762C38.063 14.0762 38.063 14.088 38.063 14.1114V16.9267C38.063 16.9501 38.063 16.9619 38.063 16.9619C38.063 16.9619 38.0512 16.9619 38.0278 16.9619H35.2125C35.189 16.9619 35.1773 16.9619 35.1773 16.9619C35.1773 16.9619 35.1773 16.9501 35.1773 16.9267V14.1114C35.1773 14.088 35.1773 14.0762 35.1773 14.0762C35.1773 14.0762 35.189 14.0762 35.2125 14.0762ZM21.1363 17.5953H23.9515C23.975 17.5953 23.9867 17.5953 23.9867 17.5953C23.9867 17.5953 23.9867 17.607 23.9867 17.6305V20.4457C23.9867 20.4692 23.9867 20.4809 23.9867 20.4809C23.9867 20.4809 23.975 20.4809 23.9515 20.4809H21.1363C21.1128 20.4809 21.1011 20.4809 21.1011 20.4809C21.1011 20.4809 21.1011 20.4692 21.1011 20.4457V17.6305C21.1011 17.607 21.1011 17.5953 21.1011 17.5953C21.1011 17.5953 21.1128 17.5953 21.1363 17.5953ZM35.2125 17.5953H38.0278C38.0512 17.5953 38.063 17.5953 38.063 17.5953C38.063 17.5953 38.063 17.607 38.063 17.6305V20.4457C38.063 20.4692 38.063 20.4809 38.063 20.4809C38.063 20.4809 38.0512 20.4809 38.0278 20.4809H35.2125C35.189 20.4809 35.1773 20.4809 35.1773 20.4809C35.1773 20.4809 35.1773 20.4692 35.1773 20.4457V17.6305C35.1773 17.607 35.1773 17.5953 35.1773 17.5953C35.1773 17.5953 35.189 17.5953 35.2125 17.5953ZM24.6553 21.1144H27.4706C27.494 21.1144 27.5058 21.1144 27.5058 21.1144C27.5058 21.1144 27.5058 21.1261 27.5058 21.1496V23.9648C27.5058 23.9883 27.5058 24 27.5058 24C27.5058 24 27.494 24 27.4706 24H24.6553C24.6319 24 24.6201 24 24.6201 24C24.6201 24 24.6201 23.9883 24.6201 23.9648V21.1496C24.6201 21.1261 24.6201 21.1144 24.6201 21.1144C24.6201 21.1144 24.6319 21.1144 24.6553 21.1144ZM28.1744 21.1144H30.9896C31.0131 21.1144 31.0248 21.1144 31.0248 21.1144C31.0248 21.1144 31.0248 21.1261 31.0248 21.1496V23.9648C31.0248 23.9883 31.0248 24 31.0248 24C31.0248 24 31.0131 24 30.9896 24H28.1744C28.1509 24 28.1392 24 28.1392 24C28.1392 24 28.1392 23.9883 28.1392 23.9648V21.1496C28.1392 21.1261 28.1392 21.1144 28.1392 21.1144C28.1392 21.1144 28.1509 21.1144 28.1744 21.1144ZM31.6934 21.1144H34.5087C34.5322 21.1144 34.5439 21.1144 34.5439 21.1144C34.5439 21.1144 34.5439 21.1261 34.5439 21.1496V23.9648C34.5439 23.9883 34.5439 24 34.5439 24C34.5439 24 34.5322 24 34.5087 24H31.6934C31.67 24 31.6583 24 31.6583 24C31.6583 24 31.6583 23.9883 31.6583 23.9648V21.1496C31.6583 21.1261 31.6583 21.1144 31.6583 21.1144C31.6583 21.1144 31.67 21.1144 31.6934 21.1144Z" fill="#383838"/>
<path d="M0.0351906 0H2.85044C2.8739 0 2.88563 0 2.88563 0C2.88563 0 2.88563 0.0117302 2.88563 0.0351903V2.85044C2.88563 2.8739 2.88563 2.88563 2.88563 2.88563C2.88563 2.88563 2.8739 2.88563 2.85044 2.88563H0.0351906C0.0117302 2.88563 0 2.88563 0 2.88563C0 2.88563 0 2.8739 0 2.85044V0.0351903C0 0.0117302 0 0 0 0C0 0 0.0117302 0 0.0351906 0ZM14.1114 0H16.9267C16.9501 0 16.9619 0 16.9619 0C16.9619 0 16.9619 0.0117302 16.9619 0.0351903V2.85044C16.9619 2.8739 16.9619 2.88563 16.9619 2.88563C16.9619 2.88563 16.9501 2.88563 16.9267 2.88563H14.1114C14.088 2.88563 14.0762 2.88563 14.0762 2.88563C14.0762 2.88563 14.0762 2.8739 14.0762 2.85044V0.0351903C14.0762 0.0117302 14.0762 0 14.0762 0C14.0762 0 14.088 0 14.1114 0ZM0.0351906 3.51906H2.85044C2.8739 3.51906 2.88563 3.51906 2.88563 3.51906C2.88563 3.51906 2.88563 3.53079 2.88563 3.55425V6.3695C2.88563 6.39296 2.88563 6.40469 2.88563 6.40469C2.88563 6.40469 2.8739 6.40469 2.85044 6.40469H0.0351906C0.0117302 6.40469 0 6.40469 0 6.40469C0 6.40469 0 6.39296 0 6.3695V3.55425C0 3.53079 0 3.51906 0 3.51906C0 3.51906 0.0117302 3.51906 0.0351906 3.51906ZM10.5924 3.51906H13.4076C13.4311 3.51906 13.4428 3.51906 13.4428 3.51906C13.4428 3.51906 13.4428 3.53079 13.4428 3.55425V6.3695C13.4428 6.39296 13.4428 6.40469 13.4428 6.40469C13.4428 6.40469 13.4311 6.40469 13.4076 6.40469H10.5924C10.5689 6.40469 10.5572 6.40469 10.5572 6.40469C10.5572 6.40469 10.5572 6.39296 10.5572 6.3695V3.55425C10.5572 3.53079 10.5572 3.51906 10.5572 3.51906C10.5572 3.51906 10.5689 3.51906 10.5924 3.51906ZM0.0351906 7.03812H2.85044C2.8739 7.03812 2.88563 7.03812 2.88563 7.03812C2.88563 7.03812 2.88563 7.04985 2.88563 7.07332V9.88856C2.88563 9.91202 2.88563 9.92375 2.88563 9.92375C2.88563 9.92375 2.8739 9.92375 2.85044 9.92375H0.0351906C0.0117302 9.92375 0 9.92375 0 9.92375C0 9.92375 0 9.91202 0 9.88856V7.07332C0 7.04985 0 7.03812 0 7.03812C0 7.03812 0.0117302 7.03812 0.0351906 7.03812ZM7.07331 7.03812H9.88856C9.91202 7.03812 9.92375 7.03812 9.92375 7.03812C9.92375 7.03812 9.92375 7.04985 9.92375 7.07332V9.88856C9.92375 9.91202 9.92375 9.92375 9.92375 9.92375C9.92375 9.92375 9.91202 9.92375 9.88856 9.92375H7.07331C7.04985 9.92375 7.03812 9.92375 7.03812 9.92375C7.03812 9.92375 7.03812 9.91202 7.03812 9.88856V7.07332C7.03812 7.04985 7.03812 7.03812 7.03812 7.03812C7.03812 7.03812 7.04985 7.03812 7.07331 7.03812ZM0.0351906 10.5572H2.85044C2.8739 10.5572 2.88563 10.5572 2.88563 10.5572C2.88563 10.5572 2.88563 10.5689 2.88563 10.5924V13.4076C2.88563 13.4311 2.88563 13.4428 2.88563 13.4428C2.88563 13.4428 2.8739 13.4428 2.85044 13.4428H0.0351906C0.0117302 13.4428 0 13.4428 0 13.4428C0 13.4428 0 13.4311 0 13.4076V10.5924C0 10.5689 0 10.5572 0 10.5572C0 10.5572 0.0117302 10.5572 0.0351906 10.5572ZM3.55425 10.5572H6.3695C6.39296 10.5572 6.40469 10.5572 6.40469 10.5572C6.40469 10.5572 6.40469 10.5689 6.40469 10.5924V13.4076C6.40469 13.4311 6.40469 13.4428 6.40469 13.4428C6.40469 13.4428 6.39296 13.4428 6.3695 13.4428H3.55425C3.53079 13.4428 3.51906 13.4428 3.51906 13.4428C3.51906 13.4428 3.51906 13.4311 3.51906 13.4076V10.5924C3.51906 10.5689 3.51906 10.5572 3.51906 10.5572C3.51906 10.5572 3.53079 10.5572 3.55425 10.5572ZM0.0351906 14.0762H2.85044C2.8739 14.0762 2.88563 14.0762 2.88563 14.0762C2.88563 14.0762 2.88563 14.088 2.88563 14.1114V16.9267C2.88563 16.9501 2.88563 16.9619 2.88563 16.9619C2.88563 16.9619 2.8739 16.9619 2.85044 16.9619H0.0351906C0.0117302 16.9619 0 16.9619 0 16.9619C0 16.9619 0 16.9501 0 16.9267V14.1114C0 14.088 0 14.0762 0 14.0762C0 14.0762 0.0117302 14.0762 0.0351906 14.0762ZM7.07331 14.0762H9.88856C9.91202 14.0762 9.92375 14.0762 9.92375 14.0762C9.92375 14.0762 9.92375 14.088 9.92375 14.1114V16.9267C9.92375 16.9501 9.92375 16.9619 9.92375 16.9619C9.92375 16.9619 9.91202 16.9619 9.88856 16.9619H7.07331C7.04985 16.9619 7.03812 16.9619 7.03812 16.9619C7.03812 16.9619 7.03812 16.9501 7.03812 16.9267V14.1114C7.03812 14.088 7.03812 14.0762 7.03812 14.0762C7.03812 14.0762 7.04985 14.0762 7.07331 14.0762ZM0.0351906 17.5953H2.85044C2.8739 17.5953 2.88563 17.5953 2.88563 17.5953C2.88563 17.5953 2.88563 17.607 2.88563 17.6305V20.4457C2.88563 20.4692 2.88563 20.4809 2.88563 20.4809C2.88563 20.4809 2.8739 20.4809 2.85044 20.4809H0.0351906C0.0117302 20.4809 0 20.4809 0 20.4809C0 20.4809 0 20.4692 0 20.4457V17.6305C0 17.607 0 17.5953 0 17.5953C0 17.5953 0.0117302 17.5953 0.0351906 17.5953ZM10.5924 17.5953H13.4076C13.4311 17.5953 13.4428 17.5953 13.4428 17.5953C13.4428 17.5953 13.4428 17.607 13.4428 17.6305V20.4457C13.4428 20.4692 13.4428 20.4809 13.4428 20.4809C13.4428 20.4809 13.4311 20.4809 13.4076 20.4809H10.5924C10.5689 20.4809 10.5572 20.4809 10.5572 20.4809C10.5572 20.4809 10.5572 20.4692 10.5572 20.4457V17.6305C10.5572 17.607 10.5572 17.5953 10.5572 17.5953C10.5572 17.5953 10.5689 17.5953 10.5924 17.5953ZM0.0351906 21.1144H2.85044C2.8739 21.1144 2.88563 21.1144 2.88563 21.1144C2.88563 21.1144 2.88563 21.1261 2.88563 21.1496V23.9648C2.88563 23.9883 2.88563 24 2.88563 24C2.88563 24 2.8739 24 2.85044 24H0.0351906C0.0117302 24 0 24 0 24C0 24 0 23.9883 0 23.9648V21.1496C0 21.1261 0 21.1144 0 21.1144C0 21.1144 0.0117302 21.1144 0.0351906 21.1144ZM14.1114 21.1144H16.9267C16.9501 21.1144 16.9619 21.1144 16.9619 21.1144C16.9619 21.1144 16.9619 21.1261 16.9619 21.1496V23.9648C16.9619 23.9883 16.9619 24 16.9619 24C16.9619 24 16.9501 24 16.9267 24H14.1114C14.088 24 14.0762 24 14.0762 24C14.0762 24 14.0762 23.9883 14.0762 23.9648V21.1496C14.0762 21.1261 14.0762 21.1144 14.0762 21.1144C14.0762 21.1144 14.088 21.1144 14.1114 21.1144Z" fill="#383838"/>
</svg>
