<svg width="48" height="48" viewBox="0 0 48 48" fill="none" xmlns="http://www.w3.org/2000/svg">
<g clip-path="url(#clip0_1610_5777)">
<path d="M4.33887 14.5921V33.4081C4.33887 34.6177 4.97247 35.7121 6.02847 36.3265L22.3293 45.7345C23.3661 46.3297 24.6525 46.3297 25.6893 45.7345L41.9901 36.3265C43.0269 35.7313 43.6797 34.6177 43.6797 33.4081V14.5921C43.6797 13.3825 43.0461 12.2881 41.9901 11.6737L25.6893 2.26574C24.6525 1.67054 23.3661 1.67054 22.3293 2.26574L6.02847 11.6737C4.99167 12.2689 4.35807 13.3825 4.35807 14.5921H4.33887Z" fill="#213147"/>
<path d="M27.55 27.6474L25.2268 34.0218C25.1692 34.1946 25.1692 34.3866 25.2268 34.5786L29.2204 45.5418L33.8476 42.873L28.2988 27.6474C28.1644 27.3018 27.6844 27.3018 27.55 27.6474Z" fill="#12AAFF"/>
<path d="M32.2187 16.9335C32.0843 16.5879 31.6043 16.5879 31.4699 16.9335L29.1467 23.3079C29.0891 23.4807 29.0891 23.6727 29.1467 23.8647L35.6939 41.8167L40.3211 39.1479L32.2187 16.9527V16.9335Z" fill="#12AAFF"/>
<path d="M24.0041 2.976C24.1193 2.976 24.2345 3.0144 24.3305 3.072L41.9561 13.248C42.1673 13.3632 42.2825 13.5936 42.2825 13.824V34.176C42.2825 34.4064 42.1481 34.6368 41.9561 34.752L24.3305 44.928C24.2345 44.9856 24.1193 45.024 24.0041 45.024C23.8889 45.024 23.7737 44.9856 23.6777 44.928L6.05207 34.752C5.84087 34.6368 5.72567 34.4064 5.72567 34.176V13.8048C5.72567 13.5744 5.86007 13.344 6.05207 13.2288L23.6777 3.0528C23.7737 2.9952 23.8889 2.9568 24.0041 2.9568V2.976ZM24.0041 0C23.3705 0 22.7561 0.1536 22.1801 0.48L4.55447 10.656C3.42167 11.3088 2.73047 12.4992 2.73047 13.8048V34.1568C2.73047 35.4624 3.42167 36.6528 4.55447 37.3056L22.1801 47.4816C22.7369 47.808 23.3705 47.9616 24.0041 47.9616C24.6377 47.9616 25.2521 47.808 25.8281 47.4816L43.4537 37.3056C44.5865 36.6528 45.2777 35.4624 45.2777 34.1568V13.8048C45.2777 12.4992 44.5865 11.3088 43.4537 10.656L25.8089 0.48C25.2521 0.1536 24.6185 0 23.9849 0H24.0041Z" fill="#9DCCED"/>
<path d="M12.3281 41.8372L13.9601 37.3828L17.2241 40.09L14.1713 42.8932L12.3281 41.8372Z" fill="#213147"/>
<path d="M22.5053 12.3649H18.0317C17.7053 12.3649 17.3981 12.5761 17.2829 12.8833L7.70215 39.1489L12.3293 41.8177L22.8893 12.8833C22.9853 12.6145 22.7933 12.3457 22.5245 12.3457L22.5053 12.3649Z" fill="white"/>
<path d="M30.3402 12.3649H25.8666C25.5402 12.3649 25.233 12.5761 25.1178 12.8833L14.1738 42.8737L18.801 45.5425L30.705 12.8833C30.801 12.6145 30.609 12.3457 30.3402 12.3457V12.3649Z" fill="white"/>
</g>
<defs>
<clipPath id="clip0_1610_5777">
<rect width="48" height="48" fill="white"/>
</clipPath>
</defs>
</svg>
