<svg width="48" height="46" viewBox="0 0 48 46" fill="none" xmlns="http://www.w3.org/2000/svg">
<g clip-path="url(#clip0_2_24)">
<path fill-rule="evenodd" clip-rule="evenodd" d="M5.79823 35.2792C5.52683 34.9708 5.25543 34.6593 4.99944 34.3386C-1.41245 27.2543 -2.47956 14.0388 6.69569 5.48964C7.38659 4.94066 8.09902 4.45029 8.82991 4.01851C4.87916 7.39256 3.88299 9.85059 3.13663 13.2215C1.8598 19.1647 5.53608 27.1803 7.63945 30.0115C11.6612 35.4458 17.1262 30.579 13.7491 26.0823C11.2911 22.8348 6.20228 14.3997 8.04659 8.75576C9.26788 5.03319 12.8516 2.27906 15.1308 0.992977C18.3537 0.169518 21.2466 -0.00936238 24.3708 0.56737C19.7871 1.89098 18.5694 2.84216 17.1366 3.96137L17.1361 3.96178C17.0767 4.00815 17.017 4.0548 16.9566 4.10178C9.14849 10.1871 13.7977 16.9262 17.3418 22.0634C17.6236 22.4719 17.8984 22.8702 18.1594 23.2573C20.9629 26.7825 21.2775 32.0841 17.7647 35.3779C15.248 37.7527 12.0405 38.3757 9.15994 37.3641C8.25939 37.0526 7.40812 36.5777 6.58775 35.9547C6.35643 35.7881 6.15291 35.6 5.96478 35.4242L5.94011 35.3934C5.92777 35.3779 5.91158 35.3656 5.89539 35.3532C5.87919 35.3409 5.863 35.3286 5.85067 35.3132C5.84449 35.3054 5.83447 35.3008 5.82445 35.2962C5.81443 35.2916 5.8044 35.287 5.79823 35.2792ZM35.4351 6.41274C35.7065 6.72117 35.9779 7.03268 36.2338 7.35342C39.7769 11.268 41.687 17.0556 41.139 22.8929C40.1425 22.6044 39.0965 22.4326 38.0167 22.3933C37.1874 17.9459 35.024 13.6096 33.5908 11.6804C29.569 6.24623 24.104 11.113 27.4811 15.6097C28.7398 17.2726 30.6884 20.2959 32.0425 23.6081C30.4623 24.3518 29.0571 25.4062 27.9058 26.6925C27.0241 24.1693 25.3625 21.7608 23.8913 19.6283L23.8902 19.6267C23.6089 19.2189 23.3345 18.8212 23.0739 18.4347C20.2704 14.9095 19.9558 9.60794 23.4687 6.31408C25.9853 3.9393 29.1928 3.31631 32.0734 4.3279C32.9709 4.6394 33.8252 5.11435 34.6455 5.73735C34.8769 5.90389 35.0804 6.09202 35.2686 6.26781L35.2932 6.29866C35.3055 6.31408 35.3217 6.32642 35.3379 6.33875C35.3541 6.35109 35.3703 6.36343 35.3826 6.37885C35.3888 6.38653 35.3988 6.39121 35.4089 6.39582C35.4189 6.40044 35.4289 6.40505 35.4351 6.41274ZM24.7534 37.2027C24.599 37.3321 24.4391 37.4613 24.2736 37.5902C24.2192 37.6327 24.1653 37.6748 24.1117 37.7167L24.1056 37.7215L24.1014 37.7249C22.6679 38.8465 21.4511 39.7987 16.8594 41.1246C19.8938 41.6848 22.71 41.5321 25.8224 40.7684C25.3034 39.6568 24.938 38.4591 24.7534 37.2027Z" fill="url(#paint0_linear_2_24)"/>
<path d="M37.5385 45.7692C43.3162 45.7692 48 41.0854 48 35.3077C48 29.53 43.3162 24.8462 37.5385 24.8462C31.7607 24.8462 27.0769 29.53 27.0769 35.3077C27.0769 41.0854 31.7607 45.7692 37.5385 45.7692Z" fill="#627EEB"/>
<path d="M37.5374 29.7692L37.4631 30.0217V37.3459L37.5374 37.4201L40.9372 35.4104L37.5374 29.7692Z" fill="#C1CDF6"/>
<path d="M37.5374 29.7692L34.1375 35.4104L37.5374 37.4201V33.865V29.7692Z" fill="white"/>
<path d="M37.5374 38.0637L37.4955 38.1148V40.7238L37.5374 40.8461L40.9393 36.0551L37.5374 38.0637Z" fill="#C1CDF6"/>
<path d="M37.5374 40.8461V38.0637L34.1375 36.0551L37.5374 40.8461Z" fill="white"/>
<path d="M37.5374 37.42L40.9372 35.4104L37.5374 33.8651V37.42Z" fill="#8198EE"/>
<path d="M34.1375 35.4104L37.5374 37.42V33.8651L34.1375 35.4104Z" fill="#C1CDF4"/>
</g>
<defs>
<linearGradient id="paint0_linear_2_24" x1="20.6159" y1="0.230774" x2="20.6159" y2="41.4612" gradientUnits="userSpaceOnUse">
<stop stop-color="#ACE0FF"/>
<stop offset="1" stop-color="#84B6EB"/>
</linearGradient>
<clipPath id="clip0_2_24">
<rect width="48" height="45.5385" fill="white" transform="translate(0 0.230774)"/>
</clipPath>
</defs>
</svg>
