<svg width="48" height="48" viewBox="0 0 48 48" fill="none" xmlns="http://www.w3.org/2000/svg">
<g clip-path="url(#clip0_2_2)">
<path d="M28.8899 29.8218L28.8957 29.818C28.8957 29.818 28.8899 29.8218 28.886 29.8238C28.888 29.8238 28.8899 29.8238 28.8919 29.8238L28.8899 29.8218Z" fill="black"/>
<path d="M28.8861 29.8238C19.8169 32.5478 12.3171 36.5215 7.6188 41.1752L7.4115 41.3825C8.66115 42.5644 10.0309 43.6222 11.5111 44.5212L11.8289 44.1317C13.1114 42.5644 14.487 41.0512 15.9188 39.6253C19.7607 35.7969 24.1548 32.4839 28.8861 29.8238Z" fill="black"/>
<path d="M29.9342 25.7862H-0.00500488C0.357296 30.6433 2.16105 35.0975 4.99165 38.7205L5.12145 38.5907C8.02955 35.7213 11.8153 33.1136 16.3818 30.8409C20.3846 28.8473 24.9802 27.1366 29.9342 25.7862Z" fill="black"/>
<path d="M18.4568 5.8228C26.5728 13.9097 36.7869 19.257 47.9911 21.2855C46.6407 9.29662 36.4362 -0.0282593 24.0367 -0.0282593C20.7624 -0.0282593 17.6412 0.624657 14.7912 1.80262C15.9478 3.19564 17.1839 4.55184 18.4568 5.82474V5.8228Z" fill="black"/>
<path d="M7.6188 6.81283C12.3171 11.4743 19.8208 15.4422 28.8919 18.172C24.1568 15.5061 19.7588 12.195 15.9149 8.36471C14.487 6.94264 13.1134 5.4295 11.825 3.85824L11.5072 3.46881C10.027 4.36778 8.65727 5.42368 7.41344 6.60552L7.62074 6.81283H7.6188Z" fill="black"/>
<path d="M18.4568 42.1652C17.1781 43.4381 15.944 44.7944 14.7912 46.1874C17.6373 47.3653 20.7624 48.0182 24.0367 48.0182C36.4362 48.0182 46.6407 38.6914 47.995 26.6987C36.7927 28.7272 26.5786 34.0745 18.4607 42.1614L18.4568 42.1652Z" fill="black"/>
<path d="M16.376 17.1413V17.1452C11.8134 14.8726 8.02955 12.2628 5.12145 9.39737L4.99165 9.26756C2.16105 12.8906 0.357296 17.3447 -0.00500488 22.2019H29.9284C24.9763 20.8515 20.3846 19.1407 16.376 17.1413Z" fill="black"/>
</g>
<defs>
<clipPath id="clip0_2_2">
<rect width="48" height="48" fill="white" transform="translate(-0.00500488 -0.00500488)"/>
</clipPath>
</defs>
</svg>
